<svg id="visual" viewBox="0 0 960 540" width="960" height="540" xmlns="http://www.w3.org/2000/svg" xmlns:xlink="http://www.w3.org/1999/xlink" version="1.1"><rect x="0" y="0" width="960" height="540" fill="#001220"></rect><defs><linearGradient id="grad1_0" x1="43.8%" y1="0%" x2="100%" y2="100%"><stop offset="14.444444444444446%" stop-color="#31c543" stop-opacity="1"></stop><stop offset="85.55555555555554%" stop-color="#31c543" stop-opacity="1"></stop></linearGradient></defs><defs><linearGradient id="grad1_1" x1="43.8%" y1="0%" x2="100%" y2="100%"><stop offset="14.444444444444446%" stop-color="#31c543" stop-opacity="1"></stop><stop offset="85.55555555555554%" stop-color="#00a863" stop-opacity="1"></stop></linearGradient></defs><defs><linearGradient id="grad1_2" x1="43.8%" y1="0%" x2="100%" y2="100%"><stop offset="14.444444444444446%" stop-color="#008974" stop-opacity="1"></stop><stop offset="85.55555555555554%" stop-color="#00a863" stop-opacity="1"></stop></linearGradient></defs><defs><linearGradient id="grad1_3" x1="43.8%" y1="0%" x2="100%" y2="100%"><stop offset="14.444444444444446%" stop-color="#008974" stop-opacity="1"></stop><stop offset="85.55555555555554%" stop-color="#006a73" stop-opacity="1"></stop></linearGradient></defs><defs><linearGradient id="grad1_4" x1="43.8%" y1="0%" x2="100%" y2="100%"><stop offset="14.444444444444446%" stop-color="#004a62" stop-opacity="1"></stop><stop offset="85.55555555555554%" stop-color="#006a73" stop-opacity="1"></stop></linearGradient></defs><defs><linearGradient id="grad1_5" x1="43.8%" y1="0%" x2="100%" y2="100%"><stop offset="14.444444444444446%" stop-color="#004a62" stop-opacity="1"></stop><stop offset="85.55555555555554%" stop-color="#002d44" stop-opacity="1"></stop></linearGradient></defs><defs><linearGradient id="grad1_6" x1="43.8%" y1="0%" x2="100%" y2="100%"><stop offset="14.444444444444446%" stop-color="#001220" stop-opacity="1"></stop><stop offset="85.55555555555554%" stop-color="#002d44" stop-opacity="1"></stop></linearGradient></defs><defs><linearGradient id="grad2_0" x1="0%" y1="0%" x2="56.3%" y2="100%"><stop offset="14.444444444444446%" stop-color="#31c543" stop-opacity="1"></stop><stop offset="85.55555555555554%" stop-color="#31c543" stop-opacity="1"></stop></linearGradient></defs><defs><linearGradient id="grad2_1" x1="0%" y1="0%" x2="56.3%" y2="100%"><stop offset="14.444444444444446%" stop-color="#00a863" stop-opacity="1"></stop><stop offset="85.55555555555554%" stop-color="#31c543" stop-opacity="1"></stop></linearGradient></defs><defs><linearGradient id="grad2_2" x1="0%" y1="0%" x2="56.3%" y2="100%"><stop offset="14.444444444444446%" stop-color="#00a863" stop-opacity="1"></stop><stop offset="85.55555555555554%" stop-color="#008974" stop-opacity="1"></stop></linearGradient></defs><defs><linearGradient id="grad2_3" x1="0%" y1="0%" x2="56.3%" y2="100%"><stop offset="14.444444444444446%" stop-color="#006a73" stop-opacity="1"></stop><stop offset="85.55555555555554%" stop-color="#008974" stop-opacity="1"></stop></linearGradient></defs><defs><linearGradient id="grad2_4" x1="0%" y1="0%" x2="56.3%" y2="100%"><stop offset="14.444444444444446%" stop-color="#006a73" stop-opacity="1"></stop><stop offset="85.55555555555554%" stop-color="#004a62" stop-opacity="1"></stop></linearGradient></defs><defs><linearGradient id="grad2_5" x1="0%" y1="0%" x2="56.3%" y2="100%"><stop offset="14.444444444444446%" stop-color="#002d44" stop-opacity="1"></stop><stop offset="85.55555555555554%" stop-color="#004a62" stop-opacity="1"></stop></linearGradient></defs><defs><linearGradient id="grad2_6" x1="0%" y1="0%" x2="56.3%" y2="100%"><stop offset="14.444444444444446%" stop-color="#002d44" stop-opacity="1"></stop><stop offset="85.55555555555554%" stop-color="#001220" stop-opacity="1"></stop></linearGradient></defs><g transform="translate(960, 0)"><path d="M0 405C-51.3 361.3 -102.6 317.5 -167 289.3C-231.4 261 -308.9 248.1 -350.7 202.5C-392.6 156.9 -398.8 78.4 -405 0L0 0Z" fill="#001f32"></path><path d="M0 347.1C-44 309.7 -87.9 272.2 -143.1 247.9C-198.3 223.7 -264.8 212.7 -300.6 173.6C-336.5 134.5 -341.8 67.2 -347.1 0L0 0Z" fill="#003b55"></path><path d="M0 289.3C-36.6 258 -73.3 226.8 -119.3 206.6C-165.3 186.4 -220.6 177.2 -250.5 144.6C-280.4 112 -284.9 56 -289.3 0L0 0Z" fill="#005a6d"></path><path d="M0 231.4C-29.3 206.4 -58.6 181.4 -95.4 165.3C-132.2 149.1 -176.5 141.8 -200.4 115.7C-224.3 89.6 -227.9 44.8 -231.4 0L0 0Z" fill="#007a76"></path><path d="M0 173.6C-22 154.8 -44 136.1 -71.6 124C-99.2 111.8 -132.4 106.3 -150.3 86.8C-168.3 67.2 -170.9 33.6 -173.6 0L0 0Z" fill="#00996d"></path><path d="M0 115.7C-14.7 103.2 -29.3 90.7 -47.7 82.6C-66.1 74.6 -88.3 70.9 -100.2 57.9C-112.2 44.8 -113.9 22.4 -115.7 0L0 0Z" fill="#00b755"></path><path d="M0 57.9C-7.3 51.6 -14.7 45.4 -23.9 41.3C-33.1 37.3 -44.1 35.4 -50.1 28.9C-56.1 22.4 -57 11.2 -57.9 0L0 0Z" fill="#31c543"></path></g><g transform="translate(0, 540)"><path d="M0 -405C73.5 -395.9 146.9 -386.9 202.5 -350.7C258.1 -314.6 295.7 -251.5 326.5 -188.5C357.3 -125.5 381.1 -62.8 405 0L0 0Z" fill="#001f32"></path><path d="M0 -347.1C63 -339.4 125.9 -331.6 173.6 -300.6C221.2 -269.7 253.5 -215.5 279.8 -161.6C306.2 -107.6 326.7 -53.8 347.1 0L0 0Z" fill="#003b55"></path><path d="M0 -289.3C52.5 -282.8 105 -276.3 144.6 -250.5C184.3 -224.7 211.2 -179.6 233.2 -134.6C255.2 -89.7 272.2 -44.8 289.3 0L0 0Z" fill="#005a6d"></path><path d="M0 -231.4C42 -226.2 84 -221.1 115.7 -200.4C147.5 -179.8 169 -143.7 186.6 -107.7C204.1 -71.7 217.8 -35.9 231.4 0L0 0Z" fill="#007a76"></path><path d="M0 -173.6C31.5 -169.7 63 -165.8 86.8 -150.3C110.6 -134.8 126.7 -107.8 139.9 -80.8C153.1 -53.8 163.3 -26.9 173.6 0L0 0Z" fill="#00996d"></path><path d="M0 -115.7C21 -113.1 42 -110.5 57.9 -100.2C73.7 -89.9 84.5 -71.8 93.3 -53.9C102.1 -35.9 108.9 -17.9 115.7 0L0 0Z" fill="#00b755"></path><path d="M0 -57.9C10.5 -56.6 21 -55.3 28.9 -50.1C36.9 -44.9 42.2 -35.9 46.6 -26.9C51 -17.9 54.4 -9 57.9 0L0 0Z" fill="#31c543"></path></g></svg>